<?xml version="1.0" encoding="UTF-8"?>
<svg xmlns="http://www.w3.org/2000/svg" width="64" height="64" viewBox="0 0 64 64">
  <defs>
    <style>
      .l{fill:none;stroke:currentColor;stroke-width:1.4;stroke-linecap:round;stroke-linejoin:round}
    </style>
  </defs>

  <!-- safe padding frame (4px on each side) -->
  <g transform="translate(4 4)">
    <!-- We'll use 4 loose columns: x≈[2..12], [14..24], [26..36], [38..48] -->
    <!-- Column 1 (randomized placements) -->
    <g>
      <!-- ring -->
      <ellipse class="l" cx="7" cy="7" rx="3.8" ry="2.6"/>
      <ellipse class="l" cx="7" cy="7" rx="2" ry="1.3"/>
      <!-- pendant -->
      <path class="l" d="M5 18c-1.4 2 .3 4 2.2 4S11 20 9.6 18c-.8-1.1-1.7-1.2-2-2.3-.2 1.1-1.3 1.2-2.6 2.3z"/>
      <circle class="l" cx="8.8" cy="14.2" r="0.8"/>
      <!-- tiny charm -->
      <path class="l" d="M6 28l1.6-2.2L9 28 7.6 30.2z"/>
    </g>

    <!-- Column 2 -->
    <g>
      <!-- necklace -->
      <path class="l" d="M18 6c2 2 8 2 10 0m-10 0c-.8.9 0 2.4.8 3 1.3.8 3 2 4.2 2s3-1.2 4.2-2c.8-.6 1.6-2 .8-3"/>
      <circle class="l" cx="23" cy="12.8" r="1"/>
      <!-- hoop earrings -->
      <path class="l" d="M21 20a2.8 2.8 0 1 1 0 .1"/>
      <path class="l" d="M25 17.5h1.8"/>
      <!-- coin -->
      <circle class="l" cx="22.5" cy="27.5" r="2.8"/>
      <path class="l" d="M21.3 27.5h2.4"/>
    </g>

    <!-- Column 3 -->
    <g>
      <!-- bracelet -->
      <ellipse class="l" cx="34" cy="7" rx="4.8" ry="2.2"/>
      <!-- anklet -->
      <path class="l" d="M31 16c-3 0-5.6 1.8-5.6 4.2s2.6 4.2 5.6 4.2 5.6-1.8 5.6-4.2S34 16 31 16z"/>
      <path class="l" d="M36 17.8l1.6-1 0.9 1.4-1.7 1.1"/>
      <!-- tiny star charm -->
      <path class="l" d="M33 26l1.6-.6.6 1.4-1.6.6z"/>
    </g>

    <!-- Column 4 -->
    <g>
      <!-- chain links -->
      <ellipse class="l" cx="44" cy="6.8" rx="1.6" ry="1.1"/>
      <ellipse class="l" cx="46.8" cy="8.8" rx="1.6" ry="1.1"/>
      <ellipse class="l" cx="49.6" cy="10.8" rx="1.6" ry="1.1"/>
      <path class="l" d="M45.2 7.8l1 .6m2.4 1.4l1 .6"/>
      <!-- gold bar -->
      <path class="l" d="M40.5 17.5l5.2-1.6 4.6 2-5.2 1.6z"/>
      <path class="l" d="M51.6 18l-.6 1.7-5.2 1.6M40.5 17.5l-4.4-2"/>
      <!-- scale (small) -->
      <path class="l" d="M46 25v5m-2.4 0h4.8"/>
      <path class="l" d="M46 25.4l-3 1.3m3-1.3l3 1.3"/>
      <path class="l" d="M42.2 29.4a1.9 1.5 0 1 0 3.8 0c0-.7-.9-1.5-1.9-1.5s-1.9.8-1.9 1.5zm6.2 0a1.9 1.5 0 1 0 3.8 0c0-.7-.9-1.5-1.9-1.5s-1.9.8-1.9 1.5z"/>
    </g>

    <!-- Bottom area random sprinkle across columns to break alignment -->
    <g>
      <!-- brooch -->
      <ellipse class="l" cx="10" cy="38" rx="3.8" ry="2.6"/>
      <path class="l" d="M7.6 38h4.8"/>
      <path class="l" d="M13.6 38l2.6-.9-.7 2.2z"/>
      <!-- jewelry box -->
      <path class="l" d="M20 37.5h7l.9 2.4H19.1z"/>
      <path class="l" d="M20 37.5l3.4-2.4 3.4 2.4"/>
      <!-- coin pendant -->
      <circle class="l" cx="34" cy="37.5" r="2"/>
      <path class="l" d="M34 34.8v-1.8"/>
      <circle class="l" cx="34" cy="32.5" r="0.8"/>
      <!-- tiny charms -->
      <path class="l" d="M41 34.5l1.6-1 .9 1.4-1.6 1z"/>
      <circle class="l" cx="47" cy="35" r="1.3"/>
      <path class="l" d="M50.5 36.2c.9-1 2.4-1 3.3 0m-3.3 0c.9 1 2.4 1 3.3 0"/>
    </g>
  </g>
</svg>
