<?xml version="1.0" encoding="UTF-8"?>
<svg xmlns="http://www.w3.org/2000/svg" width="270" height="200" viewBox="0 0 270 200">
  <defs>
    <style>
      .line{fill:none;stroke:currentColor;stroke-width:2;stroke-linecap:round;stroke-linejoin:round}
    </style>
  </defs>

  <!-- OPTIONAL subtle dot noise; keep tiny and seamless -->
  <g opacity="0.05" stroke="currentColor">
    <circle cx="10" cy="10" r="0.6"/>
    <circle cx="50" cy="22" r="0.6"/>
    <circle cx="120" cy="12" r="0.6"/>
    <circle cx="200" cy="18" r="0.6"/>
    <circle cx="250" cy="8" r="0.6"/>
    <circle cx="30" cy="60" r="0.6"/>
    <circle cx="90" cy="48" r="0.6"/>
    <circle cx="170" cy="55" r="0.6"/>
    <circle cx="230" cy="45" r="0.6"/>
    <circle cx="15" cy="120" r="0.6"/>
    <circle cx="70" cy="100" r="0.6"/>
    <circle cx="145" cy="92" r="0.6"/>
    <circle cx="210" cy="110" r="0.6"/>
    <circle cx="255" cy="130" r="0.6"/>
    <circle cx="40" cy="150" r="0.6"/>
    <circle cx="100" cy="165" r="0.6"/>
    <circle cx="180" cy="170" r="0.6"/>
    <circle cx="235" cy="160" r="0.6"/>
  </g>

  <!-- Disordered unique jewelry-related icons -->
  <!-- Necklace -->
  <path class="line" d="M36 40c7 10 26 10 33 0m-33 0c-2 3-1 7 2 9 5 3 8 6 14 6s9-3 14-6c3-2 4-6 2-9"/>
  <circle class="line" cx="52.5" cy="58" r="4"/>

  <!-- Ring -->
  <ellipse class="line" cx="97" cy="36" rx="12" ry="9"/>
  <ellipse class="line" cx="97" cy="36" rx="6" ry="4.5"/>
  <path class="line" d="M92 26l5-6 5 6"/>

  <!-- Bracelet (bangle) -->
  <ellipse class="line" cx="152" cy="30" rx="17" ry="8"/>

  <!-- Earrings: drop -->
  <circle class="line" cx="200" cy="28" r="4"/>
  <path class="line" d="M200 32v10"/>
  <ellipse class="line" cx="200" cy="48" rx="6" ry="8"/>
  <!-- Earrings: hoop -->
  <path class="line" d="M224 38a10 10 0 1 1 0 0.1"/>
  <path class="line" d="M228 28h6" />

  <!-- Pendant (teardrop) -->
  <path class="line" d="M38 90c-6 10 1 20 9 20s15-10 9-20c-3-5-8-6-9-11-1 5-6 6-9 11z"/>
  <circle class="line" cx="56" cy="77" r="3"/>

  <!-- Anklet (chain with clasp) -->
  <path class="line" d="M92 86c-10 0-19 6-19 14s9 14 19 14 19-6 19-14-9-14-19-14z"/>
  <path class="line" d="M111 94l6-4 3 5-6 4"/>
  <circle class="line" cx="75" cy="100" r="2"/>
  <circle class="line" cx="83" cy="92" r="2"/>
  <circle class="line" cx="102" cy="108" r="2"/>

  <!-- Chain (links) -->
  <ellipse class="line" cx="147" cy="86" rx="6" ry="4"/>
  <ellipse class="line" cx="158" cy="92" rx="6" ry="4"/>
  <ellipse class="line" cx="169" cy="98" rx="6" ry="4"/>
  <path class="line" d="M152 90l4 2m7 4l4 2"/>

  <!-- Brooch (pin) -->
  <ellipse class="line" cx="210" cy="88" rx="11" ry="8"/>
  <path class="line" d="M202 88h16"/>
  <path class="line" d="M222 88l8-3-2 6z"/>

  <!-- Gold bar -->
  <path class="line" d="M30 140l20-6 18 8-20 6z"/>
  <path class="line" d="M70 142l-2 6-20 6m0-12l-18-8"/>
  <text x="45" y="140" font-family="monospace" font-size="6" fill="currentColor">999.9</text>

  <!-- Coin -->
  <circle class="line" cx="128" cy="138" r="12"/>
  <circle class="line" cx="128" cy="138" r="7"/>
  <path class="line" d="M124 138h8"/>

  <!-- Jewelry box -->
  <path class="line" d="M168 132h26l4 10-34 0z"/>
  <path class="line" d="M168 132l13-10 13 10"/>

  <!-- Scale -->
  <path class="line" d="M216 138v24m-10 0h20"/>
  <path class="line" d="M216 140l-14 6m14-6l14 6"/>
  <path class="line" d="M200 152a8 6 0 1 0 16 0c0-3-4-6-8-6s-8 3-8 6zm32 0a8 6 0 1 0 16 0c0-3-4-6-8-6s-8 3-8 6z"/>

  <!-- Pendant coin -->
  <circle class="line" cx="45" cy="175" r="8"/>
  <path class="line" d="M45 167v-6"/>
  <circle class="line" cx="45" cy="160" r="2"/>

  <!-- Chain segment bottom -->
  <path class="line" d="M84 166c3 6 12 6 15 0m-25 10c2 6 11 6 14 0m25 4c2 6 9 6 12 0"/>

  <!-- Tiny charms scattered to increase count by four -->
  <path class="line" d="M120 168l4-6 4 6-4 6z"/>
  <circle class="line" cx="136" cy="176" r="3"/>
  <path class="line" d="M152 166h10l-5 9z"/>
  <path class="line" d="M172 174a5 5 0 1 0 .1 0"/>

  <!-- Extra jewelry: cuff bracelet, pendant star, small hoop, clasp -->
  <path class="line" d="M188 168a12 9 0 0 1 18 0m-18 0v6m18 0v-6"/>
  <path class="line" d="M206 170l4-2 2 4-4 2z"/>
  <circle class="line" cx="228" cy="166" r="5"/>
  <path class="line" d="M240 170c3-4 8-4 11 0m-11 0c3 4 8 4 11 0"/>

</svg>
